<mxfile host="app.diagrams.net" modified="2023-03-16T12:56:28.815Z" agent="5.0 (Macintosh; Intel Mac OS X 10_15_7) AppleWebKit/537.36 (KHTML, like Gecko) Chrome/110.0.0.0 Safari/537.36" etag="I3mtvYeL3iEQeapkn1o9" version="20.8.23" type="github">
  <diagram name="Page-1" id="e_iutZrEQ2IzxyGCqt7G">
    <mxGraphModel dx="1434" dy="771" grid="1" gridSize="10" guides="1" tooltips="1" connect="1" arrows="1" fold="1" page="1" pageScale="1" pageWidth="827" pageHeight="1169" math="0" shadow="0">
      <root>
        <mxCell id="0" />
        <mxCell id="1" parent="0" />
        <mxCell id="oyOywGFUje6jyUXUxQqi-10" value="void f(int a){&lt;br&gt;&lt;span style=&quot;&quot;&gt;	&lt;/span&gt;&lt;span style=&quot;white-space: pre;&quot;&gt;	&lt;/span&gt;..... // do something&lt;br&gt;&lt;span style=&quot;&quot;&gt;	&lt;/span&gt;&lt;span style=&quot;white-space: pre;&quot;&gt;	&lt;/span&gt;return;&lt;br&gt;}&lt;br&gt;&lt;br&gt;void bar(){&lt;br&gt;&lt;span style=&quot;&quot;&gt;	&lt;/span&gt;&lt;span style=&quot;white-space: pre;&quot;&gt;	&lt;/span&gt;f(0);&lt;br&gt;&lt;span style=&quot;&quot;&gt;	&lt;/span&gt;&lt;span style=&quot;white-space: pre;&quot;&gt;	&lt;/span&gt;..... // do something&lt;br&gt;&lt;span style=&quot;&quot;&gt;	&lt;/span&gt;&lt;span style=&quot;white-space: pre;&quot;&gt;	&lt;/span&gt;return;&lt;br&gt;}&lt;br&gt;&lt;br&gt;void foo(){&lt;br&gt;&lt;span style=&quot;&quot;&gt;	&lt;/span&gt;&lt;span style=&quot;white-space: pre;&quot;&gt;	&lt;/span&gt;bar();&lt;br&gt;&lt;span style=&quot;white-space: pre;&quot;&gt;	&lt;/span&gt;..... // do something&lt;br&gt;&lt;span style=&quot;&quot;&gt;	&lt;/span&gt;&lt;span style=&quot;white-space: pre;&quot;&gt;	&lt;/span&gt;return;&lt;br&gt;}" style="text;html=1;strokeColor=none;fillColor=none;align=left;verticalAlign=middle;whiteSpace=wrap;rounded=0;" vertex="1" parent="1">
          <mxGeometry x="360" y="190" width="166" height="100" as="geometry" />
        </mxCell>
        <mxCell id="oyOywGFUje6jyUXUxQqi-21" value="" style="group" vertex="1" connectable="0" parent="1">
          <mxGeometry x="560" y="105" width="170" height="275" as="geometry" />
        </mxCell>
        <mxCell id="oyOywGFUje6jyUXUxQqi-1" value="" style="endArrow=none;html=1;rounded=0;" edge="1" parent="oyOywGFUje6jyUXUxQqi-21">
          <mxGeometry width="50" height="50" relative="1" as="geometry">
            <mxPoint x="20" y="55" as="sourcePoint" />
            <mxPoint x="20" y="25" as="targetPoint" />
          </mxGeometry>
        </mxCell>
        <mxCell id="oyOywGFUje6jyUXUxQqi-2" value="" style="endArrow=classic;html=1;rounded=0;labelBorderColor=default;strokeWidth=3;" edge="1" parent="oyOywGFUje6jyUXUxQqi-21">
          <mxGeometry width="50" height="50" relative="1" as="geometry">
            <mxPoint x="20" y="55" as="sourcePoint" />
            <mxPoint x="80" y="55" as="targetPoint" />
          </mxGeometry>
        </mxCell>
        <mxCell id="oyOywGFUje6jyUXUxQqi-11" value="call" style="edgeLabel;html=1;align=center;verticalAlign=middle;resizable=0;points=[];" vertex="1" connectable="0" parent="oyOywGFUje6jyUXUxQqi-2">
          <mxGeometry x="-0.4" y="-3" relative="1" as="geometry">
            <mxPoint x="2" y="-13" as="offset" />
          </mxGeometry>
        </mxCell>
        <mxCell id="oyOywGFUje6jyUXUxQqi-3" value="" style="endArrow=none;html=1;rounded=0;" edge="1" parent="oyOywGFUje6jyUXUxQqi-21">
          <mxGeometry width="50" height="50" relative="1" as="geometry">
            <mxPoint x="80" y="75" as="sourcePoint" />
            <mxPoint x="80" y="55" as="targetPoint" />
          </mxGeometry>
        </mxCell>
        <mxCell id="oyOywGFUje6jyUXUxQqi-4" value="" style="endArrow=classic;html=1;rounded=0;strokeWidth=3;" edge="1" parent="oyOywGFUje6jyUXUxQqi-21">
          <mxGeometry width="50" height="50" relative="1" as="geometry">
            <mxPoint x="80" y="75" as="sourcePoint" />
            <mxPoint x="140" y="75" as="targetPoint" />
          </mxGeometry>
        </mxCell>
        <mxCell id="oyOywGFUje6jyUXUxQqi-12" value="call" style="edgeLabel;html=1;align=center;verticalAlign=middle;resizable=0;points=[];" vertex="1" connectable="0" parent="oyOywGFUje6jyUXUxQqi-4">
          <mxGeometry x="-0.2333" y="-1" relative="1" as="geometry">
            <mxPoint y="-11" as="offset" />
          </mxGeometry>
        </mxCell>
        <mxCell id="oyOywGFUje6jyUXUxQqi-5" value="" style="endArrow=none;html=1;rounded=0;" edge="1" parent="oyOywGFUje6jyUXUxQqi-21">
          <mxGeometry width="50" height="50" relative="1" as="geometry">
            <mxPoint x="140" y="135" as="sourcePoint" />
            <mxPoint x="140" y="75" as="targetPoint" />
          </mxGeometry>
        </mxCell>
        <mxCell id="oyOywGFUje6jyUXUxQqi-7" value="" style="endArrow=classic;html=1;rounded=0;strokeWidth=3;" edge="1" parent="oyOywGFUje6jyUXUxQqi-21">
          <mxGeometry width="50" height="50" relative="1" as="geometry">
            <mxPoint x="140" y="135" as="sourcePoint" />
            <mxPoint x="80" y="135" as="targetPoint" />
          </mxGeometry>
        </mxCell>
        <mxCell id="oyOywGFUje6jyUXUxQqi-13" value="return" style="edgeLabel;html=1;align=center;verticalAlign=middle;resizable=0;points=[];" vertex="1" connectable="0" parent="oyOywGFUje6jyUXUxQqi-7">
          <mxGeometry x="-0.2667" relative="1" as="geometry">
            <mxPoint y="-10" as="offset" />
          </mxGeometry>
        </mxCell>
        <mxCell id="oyOywGFUje6jyUXUxQqi-8" value="" style="endArrow=none;dashed=1;html=1;rounded=0;" edge="1" parent="oyOywGFUje6jyUXUxQqi-21">
          <mxGeometry width="50" height="50" relative="1" as="geometry">
            <mxPoint x="80" y="135" as="sourcePoint" />
            <mxPoint x="80" y="75" as="targetPoint" />
          </mxGeometry>
        </mxCell>
        <mxCell id="oyOywGFUje6jyUXUxQqi-9" value="" style="endArrow=none;dashed=1;html=1;rounded=0;" edge="1" parent="oyOywGFUje6jyUXUxQqi-21">
          <mxGeometry width="50" height="50" relative="1" as="geometry">
            <mxPoint x="20" y="195" as="sourcePoint" />
            <mxPoint x="20" y="55" as="targetPoint" />
          </mxGeometry>
        </mxCell>
        <mxCell id="oyOywGFUje6jyUXUxQqi-14" value="" style="endArrow=none;html=1;rounded=0;" edge="1" parent="oyOywGFUje6jyUXUxQqi-21">
          <mxGeometry width="50" height="50" relative="1" as="geometry">
            <mxPoint x="80" y="195" as="sourcePoint" />
            <mxPoint x="80" y="135" as="targetPoint" />
          </mxGeometry>
        </mxCell>
        <mxCell id="oyOywGFUje6jyUXUxQqi-15" value="" style="endArrow=classic;html=1;rounded=0;strokeWidth=3;" edge="1" parent="oyOywGFUje6jyUXUxQqi-21">
          <mxGeometry width="50" height="50" relative="1" as="geometry">
            <mxPoint x="80" y="195" as="sourcePoint" />
            <mxPoint x="20" y="195" as="targetPoint" />
          </mxGeometry>
        </mxCell>
        <mxCell id="oyOywGFUje6jyUXUxQqi-16" value="return" style="edgeLabel;html=1;align=center;verticalAlign=middle;resizable=0;points=[];" vertex="1" connectable="0" parent="oyOywGFUje6jyUXUxQqi-15">
          <mxGeometry x="-0.2667" relative="1" as="geometry">
            <mxPoint y="-10" as="offset" />
          </mxGeometry>
        </mxCell>
        <mxCell id="oyOywGFUje6jyUXUxQqi-17" value="" style="endArrow=none;html=1;rounded=0;" edge="1" parent="oyOywGFUje6jyUXUxQqi-21">
          <mxGeometry width="50" height="50" relative="1" as="geometry">
            <mxPoint x="20" y="275" as="sourcePoint" />
            <mxPoint x="20" y="195" as="targetPoint" />
          </mxGeometry>
        </mxCell>
        <mxCell id="oyOywGFUje6jyUXUxQqi-18" value="foo()" style="text;html=1;align=center;verticalAlign=middle;resizable=0;points=[];autosize=1;strokeColor=none;fillColor=none;" vertex="1" parent="oyOywGFUje6jyUXUxQqi-21">
          <mxGeometry width="50" height="30" as="geometry" />
        </mxCell>
        <mxCell id="oyOywGFUje6jyUXUxQqi-19" value="bar()" style="text;html=1;align=center;verticalAlign=middle;resizable=0;points=[];autosize=1;strokeColor=none;fillColor=none;" vertex="1" parent="oyOywGFUje6jyUXUxQqi-21">
          <mxGeometry x="60" y="25" width="50" height="30" as="geometry" />
        </mxCell>
        <mxCell id="oyOywGFUje6jyUXUxQqi-20" value="f(int)" style="text;html=1;align=center;verticalAlign=middle;resizable=0;points=[];autosize=1;strokeColor=none;fillColor=none;" vertex="1" parent="oyOywGFUje6jyUXUxQqi-21">
          <mxGeometry x="120" y="45" width="50" height="30" as="geometry" />
        </mxCell>
      </root>
    </mxGraphModel>
  </diagram>
</mxfile>
